<?xml version="1.0" encoding="UTF-8"?>
<svg width="156px" height="40px" viewBox="0 0 156 40" version="1.1" xmlns="http://www.w3.org/2000/svg" xmlns:xlink="http://www.w3.org/1999/xlink">
    <!-- Generator: Sketch 51.3 (57544) - http://www.bohemiancoding.com/sketch -->
    <title>导航中英文logo</title>
    <desc>Created with Sketch.</desc>
    <defs>
        <radialGradient cx="155.074751%" cy="-8.83376428%" fx="155.074751%" fy="-8.83376428%" r="203.183746%" gradientTransform="translate(1.550748,-0.088338),scale(1.000000,0.784946),translate(-1.550748,0.088338)" id="radialGradient-1">
            <stop stop-color="#F8C797" offset="0%"></stop>
            <stop stop-color="#E6211A" offset="42.7%"></stop>
            <stop stop-color="#E4211A" offset="67.46%"></stop>
            <stop stop-color="#DD211B" offset="77.4%"></stop>
            <stop stop-color="#D1201C" offset="84.68%"></stop>
            <stop stop-color="#BF1F1E" offset="90.66%"></stop>
            <stop stop-color="#A91E20" offset="95.78%"></stop>
            <stop stop-color="#901D22" offset="100%"></stop>
        </radialGradient>
        <radialGradient cx="173.24055%" cy="-542.640801%" fx="173.24055%" fy="-542.640801%" r="686.677108%" gradientTransform="translate(1.732406,-5.426408),scale(0.341270,1.000000),translate(-1.732406,5.426408)" id="radialGradient-2">
            <stop stop-color="#F8C797" offset="0%"></stop>
            <stop stop-color="#E6211A" offset="42.7%"></stop>
            <stop stop-color="#E4211A" offset="67.46%"></stop>
            <stop stop-color="#DD211B" offset="77.4%"></stop>
            <stop stop-color="#D1201C" offset="84.68%"></stop>
            <stop stop-color="#BF1F1E" offset="90.66%"></stop>
            <stop stop-color="#A91E20" offset="95.78%"></stop>
            <stop stop-color="#901D22" offset="100%"></stop>
        </radialGradient>
        <radialGradient cx="154.594942%" cy="-122.970668%" fx="154.594942%" fy="-122.970668%" r="301.967248%" gradientTransform="translate(1.545949,-1.229707),scale(0.593939,1.000000),translate(-1.545949,1.229707)" id="radialGradient-3">
            <stop stop-color="#F8C797" offset="0%"></stop>
            <stop stop-color="#E6211A" offset="42.7%"></stop>
            <stop stop-color="#E4211A" offset="67.46%"></stop>
            <stop stop-color="#DD211B" offset="77.4%"></stop>
            <stop stop-color="#D1201C" offset="84.68%"></stop>
            <stop stop-color="#BF1F1E" offset="90.66%"></stop>
            <stop stop-color="#A91E20" offset="95.78%"></stop>
            <stop stop-color="#901D22" offset="100%"></stop>
        </radialGradient>
        <radialGradient cx="167.52514%" cy="16.1623407%" fx="167.52514%" fy="16.1623407%" r="340.876648%" gradientTransform="translate(1.675251,0.161623),scale(1.000000,0.376623),translate(-1.675251,-0.161623)" id="radialGradient-4">
            <stop stop-color="#F8C797" offset="0%"></stop>
            <stop stop-color="#E6211A" offset="42.7%"></stop>
            <stop stop-color="#E4211A" offset="67.46%"></stop>
            <stop stop-color="#DD211B" offset="77.4%"></stop>
            <stop stop-color="#D1201C" offset="84.68%"></stop>
            <stop stop-color="#BF1F1E" offset="90.66%"></stop>
            <stop stop-color="#A91E20" offset="95.78%"></stop>
            <stop stop-color="#901D22" offset="100%"></stop>
        </radialGradient>
        <radialGradient cx="53.8810666%" cy="16.6660613%" fx="53.8810666%" fy="16.6660613%" r="338.877966%" gradientTransform="translate(0.538811,0.166661),scale(1.000000,0.379913),translate(-0.538811,-0.166661)" id="radialGradient-5">
            <stop stop-color="#F8C797" offset="0%"></stop>
            <stop stop-color="#E6211A" offset="42.7%"></stop>
            <stop stop-color="#E4211A" offset="67.46%"></stop>
            <stop stop-color="#DD211B" offset="77.4%"></stop>
            <stop stop-color="#D1201C" offset="84.68%"></stop>
            <stop stop-color="#BF1F1E" offset="90.66%"></stop>
            <stop stop-color="#A91E20" offset="95.78%"></stop>
            <stop stop-color="#901D22" offset="100%"></stop>
        </radialGradient>
        <radialGradient cx="10.0796271%" cy="-528.357996%" fx="10.0796271%" fy="-528.357996%" r="692.718513%" gradientTransform="translate(0.100796,-5.283580),scale(0.341270,1.000000),translate(-0.100796,5.283580)" id="radialGradient-6">
            <stop stop-color="#F8C797" offset="0%"></stop>
            <stop stop-color="#E6211A" offset="42.7%"></stop>
            <stop stop-color="#E4211A" offset="67.46%"></stop>
            <stop stop-color="#DD211B" offset="77.4%"></stop>
            <stop stop-color="#D1201C" offset="84.68%"></stop>
            <stop stop-color="#BF1F1E" offset="90.66%"></stop>
            <stop stop-color="#A91E20" offset="95.78%"></stop>
            <stop stop-color="#901D22" offset="100%"></stop>
        </radialGradient>
        <radialGradient cx="8.89722449%" cy="-122.943513%" fx="8.89722449%" fy="-122.943513%" r="303.834462%" gradientTransform="translate(0.088972,-1.229435),scale(0.593939,1.000000),translate(-0.088972,1.229435)" id="radialGradient-7">
            <stop stop-color="#F8C797" offset="0%"></stop>
            <stop stop-color="#E6211A" offset="42.7%"></stop>
            <stop stop-color="#E4211A" offset="67.46%"></stop>
            <stop stop-color="#DD211B" offset="77.4%"></stop>
            <stop stop-color="#D1201C" offset="84.68%"></stop>
            <stop stop-color="#BF1F1E" offset="90.66%"></stop>
            <stop stop-color="#A91E20" offset="95.78%"></stop>
            <stop stop-color="#901D22" offset="100%"></stop>
        </radialGradient>
        <radialGradient cx="17.1125081%" cy="-8.84528496%" fx="17.1125081%" fy="-8.84528496%" r="203.513925%" gradientTransform="translate(0.171125,-0.088453),scale(1.000000,0.789189),translate(-0.171125,0.088453)" id="radialGradient-8">
            <stop stop-color="#F8C797" offset="0%"></stop>
            <stop stop-color="#E6211A" offset="42.7%"></stop>
            <stop stop-color="#E4211A" offset="67.46%"></stop>
            <stop stop-color="#DD211B" offset="77.4%"></stop>
            <stop stop-color="#D1201C" offset="84.68%"></stop>
            <stop stop-color="#BF1F1E" offset="90.66%"></stop>
            <stop stop-color="#A91E20" offset="95.78%"></stop>
            <stop stop-color="#901D22" offset="100%"></stop>
        </radialGradient>
        <path d="M1.8375,7.63125 C1.925,9.225 3.125,10.16875 3.125,10.16875 C5.0625,12.0499375 9.75625,14.4249375 10.84375,14.9625625 C10.85625,14.96875 10.9125,14.9874375 10.95,14.9438125 C10.95,14.9438125 10.99375,14.90625 10.96875,14.8500625 C7.98125,8.35625 3.9,3.4313125 3.9,3.4313125 C3.9,3.4313125 1.6750625,5.53125 1.8375,7.63125" id="path-9"></path>
        <path d="M2.3125,16.75 C3.1625,18.25625 4.5875,19.4249375 6.075,19.0625 C7.1,18.80625 9.425,17.1938125 10.1875,16.6500625 C10.24375,16.59375 10.225,16.55625 10.225,16.55625 C10.20625,16.4875 10.125,16.4875 10.125,16.4875 L2.3125,16.75 Z" id="path-11"></path>
        <path d="M0.44375,13.2625 C1.2875,15.04375 2.90625,15.5875 2.90625,15.5875 C3.65625,15.89375 4.4,15.9125625 4.4,15.9125625 C4.51875,15.93125 9.0438125,15.9125625 10.25625,15.90625 C10.30625,15.90625 10.3375,15.85625 10.3375,15.85625 C10.375,15.79375 10.30625,15.7375 10.30625,15.7375 C6.875,13.43125 0.225,9.89375 0.225,9.89375 C-0.375,11.7563125 0.44375,13.2625 0.44375,13.2625" id="path-13"></path>
        <path d="M10.8109375,0.06875 C10.43525,0.11875 9.6,0.30625 9.6,0.30625 C7.5311875,0.8375625 7.04375,2.70625 7.04375,2.70625 C6.66875,3.88125 7.05625,5.1750625 7.05625,5.1750625 C7.74375,8.225 11.14375,13.2374375 11.875,14.2875625 C11.925,14.3375625 11.96875,14.31875 11.96875,14.31875 C12.05,14.29375 12.04375,14.21875 12.04375,14.21875 C13.139,3.320875 10.982,0.2248125 10.86725,0.06875 L10.8109375,0.06875 Z" id="path-15"></path>
        <path d="M13.38125,14.2375 C13.39375,14.30625 13.44375,14.325 13.44375,14.325 C13.51875,14.35625 13.5561875,14.28125 13.5561875,14.28125 C14.30625,13.2 17.68125,8.21875 18.36875,5.18125 C18.36875,5.18125 18.74375,3.7125625 18.38125,2.7125 C18.38125,2.7125 17.86875,0.8125 15.8,0.3125 C15.8,0.3125 15.20625,0.1625 14.56875,0.075 C14.565375,0.081125 12.258625,3.0606875 13.38125,14.2375" id="path-17"></path>
        <path d="M15.20625,16.5499375 C15.20625,16.5499375 15.1875,16.61875 15.2375,16.65625 C15.9875,17.1875 18.25,18.76875 19.3436875,19.075 C19.3436875,19.075 21.35775,19.7610625 23.1125,16.766875 L23.1125,16.7560625 L15.29375,16.4875 C15.29375,16.4875 15.225,16.49375 15.20625,16.5499375" id="path-19"></path>
        <path d="M25.1828125,9.8813125 C24.882,10.048 18.475,13.4794375 15.11875,15.73125 C15.11875,15.73125 15.05625,15.775 15.08125,15.84375 C15.08125,15.84375 15.1125625,15.9 15.1625,15.9 C16.39375,15.9 21.04375,15.90625 21.1625,15.8875 C21.1625,15.8875 21.7625,15.8625 22.50625,15.58125 C22.50625,15.58125 24.1625,15.05625 25.0188125,13.1875 C25.0188125,13.1875 25.78575,11.666125 25.195875,9.8813125 L25.1828125,9.8813125 Z" id="path-21"></path>
        <path d="M14.46875,14.81875 C14.46875,14.81875 14.4375,14.89375 14.49375,14.9438125 C14.49375,14.9438125 14.5500625,14.98125 14.6,14.95 C15.71875,14.39375 20.375,12.0375625 22.30625,10.16875 C22.30625,10.16875 23.525,9.19375 23.59375,7.625 C23.73125,5.44375 21.53125,3.4313125 21.53125,3.4313125 C21.53125,3.4313125 17.45625,8.3375 14.46875,14.81875" id="path-23"></path>
    </defs>
    <g id="最终版本-1031" stroke="none" stroke-width="1" fill="none" fill-rule="evenodd">
        <g id="导航中英文logo" transform="translate(-67.000000, -210.000000)">
            <g id="Group-14-Copy-5" transform="translate(0.000000, 216.000000)">
                <g id="Group-6" transform="translate(68.000000, 0.000000)">
                    <g id="Group-2">
                        <g id="Group-18" transform="translate(0.969059, 0.017077)">
                            <g id="Group-36">
                                <g id="XMLID_16_" fill-rule="nonzero">
                                    <path d="M10.8475274,15.0003342 C10.8475274,15.0003342 10.9093407,14.9381684 10.8475274,14.8760027 C7.8804909,8.41076203 3.80081566,3.4375 3.80081566,3.4375 C3.80081566,3.4375 1.57553825,5.55113636 1.76097804,7.66477273 C1.8227913,9.28108289 3.05905652,10.2135695 3.05905652,10.2135695 C4.97526762,12.0785428 9.67307548,14.503008 10.7857142,15.0625 C10.7239009,15.0625 10.7857142,15.0625 10.8475274,15.0003342 Z" id="XMLID_26_" fill="url(#radialGradient-1)"></path>
                                    <path d="M10.125,16.5638099 C10.125,16.5 10.0019531,16.5 10.0019531,16.5 L2.25,16.7552394 C3.11132813,18.286676 4.52636719,19.4990633 6.00292969,19.1162041 C7.04882813,18.8609647 9.32519531,17.2019084 10.0634766,16.6276197 C10.125,16.5638099 10.125,16.5638099 10.125,16.5638099 Z" id="XMLID_25_" fill="url(#radialGradient-2)"></path>
                                    <path d="M10.2850919,15.9375 C10.3467602,15.875 10.2850919,15.8125 10.2850919,15.8125 C6.89333553,13.5 0.233159456,9.875 0.233159456,9.875 C-0.383523514,11.75 0.418164347,13.3125 0.418164347,13.3125 C1.28152051,15.125 2.88489623,15.6875 2.88489623,15.6875 C3.62491579,16 4.36493536,16 4.36493536,16 C4.48827195,16 8.99005763,16 10.1617553,16 C10.2850919,16 10.2850919,15.9375 10.2850919,15.9375 Z" id="XMLID_24_" fill="url(#radialGradient-3)"></path>
                                    <path d="M10.809545,0 C10.5005493,0 9.57356228,0.248922414 9.57356228,0.248922414 C7.53419079,0.808997845 7.0397977,2.67591595 7.0397977,2.67591595 C6.66900288,3.85829741 7.0397977,5.16514009 7.0397977,5.16514009 C7.7195882,8.21443966 11.1185407,13.3173491 11.8601303,14.3752694 C11.9219295,14.4375 11.9219295,14.4375 11.9219295,14.4375 C11.9837286,14.4375 11.9837286,14.3130388 11.9837286,14.3130388 C13.1579122,2.98706897 10.809545,0 10.809545,0 Z" id="XMLID_23_" fill="url(#radialGradient-4)"></path>
                                    <path d="M13.364409,14.3125 C13.425777,14.3125 13.487145,14.2505411 13.487145,14.2505411 C14.2235615,13.1972403 17.5988035,8.17857143 18.2738519,5.14258658 C18.2738519,5.14258658 18.6420601,3.65557359 18.2738519,2.6642316 C18.2738519,2.6642316 17.7829076,0.743506494 15.6963944,0.247835498 C15.6963944,0.247835498 15.082714,0.123917749 14.4690336,0 C14.4690336,0 12.1984163,2.97402597 13.3030409,14.1885823 C13.3030409,14.3125 13.364409,14.3125 13.364409,14.3125 Z" id="XMLID_22_" fill="url(#radialGradient-5)"></path>
                                    <path d="M15.2495079,16.5 C15.2495079,16.5 15.1875,16.5 15.1875,16.5624185 C15.1875,16.5624185 15.1875,16.624837 15.1875,16.6872555 C15.9315945,17.2490221 18.2258858,18.8094848 19.2800197,19.1215773 C19.2800197,19.1215773 21.3262795,19.8081809 23.0625,16.749674 L15.2495079,16.5 Z" id="XMLID_21_" fill="url(#radialGradient-6)"></path>
                                    <path d="M25.2287462,9.875 C25.2287462,9.875 18.5962257,13.4375 15.1869862,15.8125 C15.1869862,15.8125 15.125,15.875 15.125,15.9375 C15.125,15.9375 15.1869862,16 15.1869862,16 C16.4267096,16 21.0756726,16 21.199645,16 C21.199645,16 21.8195067,16 22.5633408,15.6875 C22.5633408,15.6875 24.2369674,15.1875 25.1047739,13.25 C25.0427877,13.25 25.7866218,11.6875 25.2287462,9.875 Z" id="XMLID_20_" fill="url(#radialGradient-7)"></path>
                                    <path d="M14.4649903,14.9724374 C14.4649903,14.9724374 14.5268433,15.0344532 14.5886964,14.9724374 C15.7020519,14.4142953 20.341033,12.0576952 22.2584786,10.1972214 C22.2584786,10.1972214 23.4955402,9.20496871 23.5573933,7.6545739 C23.6810995,5.48402116 21.5162416,3.4375 21.5162416,3.4375 C21.5162416,3.4375 17.4339382,8.39876341 14.4649903,14.8484058 C14.4649903,14.8484058 14.4031372,14.9724374 14.4649903,14.9724374 Z" id="XMLID_19_" fill="url(#radialGradient-8)"></path>
                                </g>
                                <mask id="mask-10" fill="white">
                                    <use xlink:href="#path-9"></use>
                                </mask>
                                <g id="Clip-13"></g>
                                <mask id="mask-12" fill="white">
                                    <use xlink:href="#path-11"></use>
                                </mask>
                                <g id="Clip-16"></g>
                                <mask id="mask-14" fill="white">
                                    <use xlink:href="#path-13"></use>
                                </mask>
                                <g id="Clip-19"></g>
                                <mask id="mask-16" fill="white">
                                    <use xlink:href="#path-15"></use>
                                </mask>
                                <g id="Clip-22"></g>
                                <mask id="mask-18" fill="white">
                                    <use xlink:href="#path-17"></use>
                                </mask>
                                <g id="Clip-25"></g>
                                <mask id="mask-20" fill="white">
                                    <use xlink:href="#path-19"></use>
                                </mask>
                                <g id="Clip-28"></g>
                                <mask id="mask-22" fill="white">
                                    <use xlink:href="#path-21"></use>
                                </mask>
                                <g id="Clip-31"></g>
                                <mask id="mask-24" fill="white">
                                    <use xlink:href="#path-23"></use>
                                </mask>
                                <g id="Clip-34"></g>
                            </g>
                        </g>
                        <path d="M5.02294922,26.9765625 L4.02490234,26.9765625 L4.02490234,24.9086914 L1.99804688,24.9086914 L1.99804688,26.9765625 L1,26.9765625 L1,22 L1.99804688,22 L1.99804688,24.1396484 L4.02490234,24.1396484 L4.02490234,22 L5.02294922,22 L5.02294922,26.9765625 Z M9.88330078,22 L9.88330078,25.2573242 C9.88330078,25.8178739 9.697593,26.2565088 9.32617188,26.5732422 C8.95475075,26.8899755 8.47282197,27.0483398 7.88037109,27.0483398 C7.29019887,27.0483398 6.81111838,26.8899755 6.44311523,26.5732422 C6.07511209,26.2565088 5.89111328,25.8178739 5.89111328,25.2573242 L5.89111328,22 L6.89257812,22 L6.89257812,25.2573242 C6.89257812,25.5900082 6.98144442,25.8440746 7.15917969,26.0195312 C7.33691495,26.1949879 7.57730968,26.2827148 7.88037109,26.2827148 C8.18798982,26.2827148 8.43180249,26.1949879 8.61181641,26.0195312 C8.79183033,25.8440746 8.88183594,25.5900082 8.88183594,25.2573242 L8.88183594,22 L9.88330078,22 Z M13.3422852,25.9033203 L11.7290039,25.9033203 L11.394043,26.9765625 L10.3515625,26.9765625 L12.0297852,22 L13.0517578,22 L14.7231445,26.9765625 L13.6806641,26.9765625 L13.3422852,25.9033203 Z M11.9750977,25.1206055 L13.0996094,25.1206055 L12.5493164,23.3671875 L12.5288086,23.3671875 L11.9750977,25.1206055 Z M19.1289062,25.3769531 L19.1494141,25.3769531 L19.809082,22 L20.8378906,22 L19.6757812,26.9765625 L18.7495117,26.9765625 L17.8334961,23.6987305 L17.8129883,23.6987305 L16.9003906,26.9765625 L15.9741211,26.9765625 L14.8120117,22 L15.8408203,22 L16.5039062,25.3735352 L16.5244141,25.3735352 L17.4199219,22 L18.2265625,22 L19.1289062,25.3769531 Z M24.2114258,24.7890625 L22.3657227,24.7890625 L22.3657227,26.2109375 L24.5600586,26.2109375 L24.5600586,26.9765625 L21.3676758,26.9765625 L21.3676758,22 L24.5532227,22 L24.5532227,22.769043 L22.3657227,22.769043 L22.3657227,24.0200195 L24.2114258,24.0200195 L24.2114258,24.7890625 Z M26.0263672,26.9765625 L25.0283203,26.9765625 L25.0283203,22 L26.0263672,22 L26.0263672,26.9765625 Z" id="HUAWEI-Copy-2" fill="#FFFFFF"></path>
                    </g>
                    <g id="huaweilogo" transform="translate(42.000000, 8.000000)" fill="#FFFFFF">
                        <g id="Group-17">
                            <g>
                                <polygon id="Fill-1" points="6.806025 0.2064 6.806025 4.9014 1.735275 4.9014 1.735275 0.2064 -0.000225 0.2064 -0.000225 11.77815 1.735275 11.77815 1.735275 6.5904 6.806025 6.5904 6.806025 11.77815 8.541525 11.77815 8.541525 0.2064"></polygon>
                                <path d="M17.87985,7.523325 C17.87985,9.420825 17.05035,10.344075 15.34485,10.344075 C13.6386,10.344075 12.8091,9.420825 12.8091,7.523325 L12.8091,0.206325 L11.0736,0.206325 L11.0736,7.491075 C11.0736,10.304325 12.67035,11.983575 15.34485,11.983575 C18.0186,11.983575 19.6146,10.304325 19.6146,7.491075 L19.6146,0.206325 L17.87985,0.206325 L17.87985,7.523325 Z" id="Fill-2"></path>
                                <path d="M27.143925,7.45665 L23.613675,7.45665 L25.371675,2.2809 L27.143925,7.45665 Z M24.463425,0.2064 L20.383425,11.77815 L22.155675,11.77815 L23.059425,9.11265 L27.715425,9.11265 L28.634925,11.77815 L30.438675,11.77815 L26.342175,0.2064 L24.463425,0.2064 Z" id="Fill-4"></path>
                                <polygon id="Fill-6" points="40.158675 8.835825 37.708425 0.364575 36.196425 0.364575 33.746175 8.850825 32.056425 0.206325 30.408675 0.206325 32.726925 11.778075 34.472175 11.778075 36.951675 3.146325 39.400425 11.778075 41.162175 11.778075 43.463925 0.206325 41.848425 0.206325"></polygon>
                                <polygon id="Fill-8" points="45.199575 11.778 53.043075 11.778 53.043075 10.1535 46.934325 10.1535 46.934325 6.59025 52.296825 6.59025 52.296825 4.93425 46.934325 4.93425 46.934325 1.83 53.043075 1.83 53.043075 0.20625 45.199575 0.20625"></polygon>
                                <polygon id="Fill-10" points="55.11525 11.778 56.88225 11.778 56.88225 0.20625 55.11525 0.20625"></polygon>
                                <path d="M69.7584,8.0265 C69.74415,8.5905 69.5334,9.1425 69.1809,9.54075 C68.72715,10.04325 68.00715,10.344 67.2549,10.344 C66.5259,10.344 65.8224,10.04925 65.3244,9.537 C64.48815,8.67075 64.41765,7.31475 64.41765,6 C64.41765,4.68525 64.48815,3.3285 65.32365,2.46375 C65.8224,1.95 66.5259,1.656 67.2549,1.656 C68.0259,1.656 68.72265,1.93725 69.1644,2.42625 C69.52815,2.838 69.7284,3.34575 69.74265,3.894 L69.7464,4.0515 L71.5329,4.0515 L71.52465,3.88275 C71.47815,2.84475 71.0889,1.94475 70.3674,1.20525 C69.6129,0.45 68.4489,0 67.2549,0 C66.0579,0 64.90665,0.456 64.0959,1.25175 C62.88315,2.43225 62.6349,4.00425 62.6349,6 C62.6349,7.99575 62.88315,9.56775 64.09515,10.74825 C64.90665,11.54325 66.05865,12 67.2549,12 C68.4294,12 69.59865,11.532 70.38315,10.74675 L70.38465,10.74525 C71.0934,10.01925 71.49315,9.08325 71.54115,8.0385 L71.54865,7.869 L69.76215,7.869 L69.7584,8.0265 Z" id="Fill-12"></path>
                                <polygon id="Fill-13" points="75.1743 0.206475 73.4388 0.206475 73.4388 11.778225 80.58405 11.778225 80.58405 10.137975 75.1743 10.137975"></polygon>
                                <path d="M88.4154,5.999925 C88.4154,7.249425 88.34415,8.656425 87.49365,9.536175 C87.00465,10.040175 86.30115,10.328175 85.56315,10.328175 C84.8244,10.328175 84.1209,10.040175 83.63265,9.536925 C82.7814,8.656425 82.71015,7.249425 82.71015,5.999925 C82.71015,4.750425 82.7814,3.343425 83.63265,2.463675 C84.1209,1.960425 84.8244,1.671675 85.56315,1.671675 C86.30115,1.671675 87.00465,1.960425 87.49365,2.462925 C88.34415,3.343425 88.4154,4.750425 88.4154,5.999925 M85.56315,-7.5e-05 C84.3594,-7.5e-05 83.2434,0.444675 82.4199,1.251675 C81.10815,2.528925 80.9274,4.289175 80.9274,5.999925 C80.9274,7.710675 81.10815,9.470925 82.41915,10.748175 C83.2434,11.555175 84.3594,11.999925 85.56315,11.999925 C86.76615,11.999925 87.88215,11.555175 88.70565,10.748175 C90.0174,9.470925 90.19815,7.710675 90.19815,5.999925 C90.19815,4.289175 90.0174,2.528925 88.7064,1.251675 C87.8829,0.444675 86.76615,-7.5e-05 85.56315,-7.5e-05" id="Fill-14"></path>
                                <path d="M98.791275,7.523325 C98.791275,9.420825 97.962525,10.344075 96.256275,10.344075 C94.550025,10.344075 93.720525,9.420825 93.720525,7.523325 L93.720525,0.206325 L91.985025,0.206325 L91.985025,7.491075 C91.985025,10.304325 93.581775,11.983575 96.256275,11.983575 C98.930025,11.983575 100.526775,10.304325 100.526775,7.491075 L100.526775,0.206325 L98.791275,0.206325 L98.791275,7.523325 Z" id="Fill-15"></path>
                                <path d="M109.9446,5.9838 C109.9446,7.28355 109.83285,8.60055 109.0236,9.42405 C108.5601,9.88755 107.8731,10.1538 107.1396,10.1538 L104.79435,10.1538 L104.79435,1.8303 L107.1396,1.8303 C107.87235,1.8303 108.55935,2.0958 109.02285,2.5593 C109.83285,3.3993 109.9446,4.7013 109.9446,5.9838 M110.20185,1.3938 C109.4046,0.6273 108.3171,0.20655 107.1396,0.20655 L103.05885,0.20655 L103.05885,11.7783 L107.1396,11.7783 C108.3276,11.7783 109.4151,11.36205 110.20185,10.60605 C111.5256,9.3348 111.6951,7.46805 111.6951,5.9838 C111.6951,4.4148 111.5181,2.6418 110.20185,1.3938" id="Fill-16"></path>
                            </g>
                        </g>
                    </g>
                </g>
            </g>
        </g>
    </g>
</svg>